<svg width="458" height="438" viewBox="0 0 458 438" fill="none" xmlns="http://www.w3.org/2000/svg">
<path d="M422.121 249.23C421.763 249.157 421.472 248.881 421.405 248.523L403.408 148.593C403.324 148.131 403.646 147.701 404.132 147.624C404.597 147.551 405.073 147.853 405.177 148.319L409.588 169.334C409.59 169.342 409.593 169.351 409.59 169.362L423.177 248.278C423.26 248.743 422.93 249.172 422.441 249.24C422.332 249.257 422.223 249.251 422.121 249.23Z" fill="#5D13FD"/>
<path d="M408.533 170.315C408.285 170.264 408.057 170.113 407.925 169.89L352.079 76.4175C351.839 76.0158 351.972 75.5105 352.38 75.2779C352.789 75.0415 353.325 75.1594 353.602 75.5447L405.038 148.003C405.103 148.096 405.153 148.207 405.176 148.319L409.587 169.334C409.672 169.744 409.432 170.147 409.022 170.287C408.859 170.338 408.692 170.347 408.533 170.315ZM365.023 94.6577L406.744 164.485L403.448 148.786L365.023 94.6577Z" fill="#5D13FD"/>
<path d="M159.391 47.1011C159 47.0209 158.697 46.7023 158.666 46.3155C158.628 45.8592 158.971 45.469 159.444 45.4179L249.57 36.1695C249.787 36.1498 249.997 36.1971 250.17 36.3085L264.893 45.4461C265.228 45.6549 265.385 46.0437 265.278 46.4022C265.175 46.7614 264.831 47.0112 264.432 47.0096L159.582 47.1204C159.519 47.1194 159.452 47.1136 159.391 47.1011ZM249.482 37.9016L176.433 45.3965L261.419 45.3057L249.482 37.9016Z" fill="#5D13FD"/>
<path d="M352.688 76.8423C352.651 76.8348 352.611 76.8225 352.575 76.8112L264.129 46.9594L249.208 37.7293C248.817 37.4887 248.678 37.0077 248.884 36.6215C249.087 36.2345 249.575 36.0664 250.004 36.2266L353.174 75.216C353.634 75.3906 353.87 75.8755 353.708 76.3109C353.554 76.7117 353.119 76.9308 352.688 76.8423ZM257.599 40.9213L264.893 45.4462L308.377 60.1102L257.599 40.9213Z" fill="#5D13FD"/>
<path d="M208.145 401.136C207.803 401.066 207.517 400.807 207.438 400.466C207.336 400.033 207.603 399.603 208.047 399.482L319.114 369.084C319.508 368.984 319.927 369.134 320.143 369.463C320.359 369.796 320.319 370.216 320.046 370.497L299.106 391.643C298.963 391.785 298.77 391.878 298.562 391.899L208.434 401.151C208.335 401.159 208.238 401.155 208.145 401.136ZM316.456 371.598L218.569 398.389L298.004 390.235L316.456 371.598Z" fill="#5D13FD"/>
<path d="M298.272 391.883C298.077 391.843 297.898 391.743 297.76 391.59C297.464 391.257 297.474 390.771 297.78 390.457L318.72 369.311C318.789 369.241 318.873 369.186 318.962 369.14L382.139 338.689C382.563 338.484 383.082 338.638 383.332 339.03C383.578 339.425 383.458 339.929 383.06 340.172L298.945 391.769C298.741 391.896 298.496 391.929 298.272 391.883ZM319.94 370.599L304.211 386.486L367.401 347.723L319.94 370.599Z" fill="#5D13FD"/>
<path d="M395.755 282.575C395.702 282.564 395.65 282.55 395.599 282.527C395.222 282.382 394.988 282.013 395.033 281.63L407.811 169.37C407.859 168.947 408.23 168.631 408.68 168.627C409.156 168.64 409.519 168.939 409.589 169.362L423.176 248.278C423.219 248.506 423.159 248.735 423.015 248.917L396.65 282.262C396.439 282.527 396.093 282.644 395.755 282.575ZM408.89 175.827L397.178 278.722L421.344 248.158L408.89 175.827Z" fill="#5D13FD"/>
<path d="M382.388 340.286C382.356 340.28 382.323 340.273 382.291 340.262C381.846 340.119 381.58 339.68 381.68 339.252L395.048 281.54C395.076 281.422 395.128 281.313 395.203 281.22L421.568 247.875C421.842 247.53 422.35 247.451 422.731 247.661C423.127 247.882 423.296 248.341 423.125 248.739L383.392 339.795C383.226 340.17 382.803 340.371 382.388 340.286ZM396.766 282.117L385.641 330.14L418.703 254.372L396.766 282.117Z" fill="#5D13FD"/>
<path d="M319.211 370.737C319.012 370.696 318.826 370.59 318.689 370.43C318.415 370.113 318.414 369.661 318.682 369.351L395.225 281.188C395.49 280.89 395.946 280.799 396.316 280.979C396.69 281.16 396.892 281.558 396.805 281.941L383.438 339.652C383.379 339.897 383.214 340.103 382.979 340.215L319.803 370.666C319.619 370.757 319.407 370.777 319.211 370.737ZM394.235 285.042L322.85 367.267L381.771 338.866L394.235 285.042Z" fill="#5D13FD"/>
<path d="M35.5383 189.754C35.4366 189.733 35.338 189.697 35.2475 189.642C34.8656 189.416 34.7083 188.963 34.8766 188.577L74.6255 97.5237C74.7449 97.2518 75.0087 97.0616 75.3181 97.021C75.6243 96.9757 75.9421 97.101 76.1451 97.331L96.6543 120.824C96.936 121.147 96.9389 121.608 96.6588 121.919L36.4007 189.478C36.186 189.719 35.8517 189.818 35.5383 189.754ZM75.7262 99.4958L38.7709 184.15L94.7929 121.339L75.7262 99.4958Z" fill="#5D13FD"/>
<path d="M95.7967 122.195C95.5973 122.154 95.4154 122.048 95.2811 121.897L74.7719 98.4032C74.6073 98.2132 74.5342 97.9698 74.5669 97.7282C74.6028 97.4913 74.7445 97.2761 74.9575 97.1476L159.061 45.5477C159.426 45.3183 159.925 45.3886 160.221 45.7017C160.521 46.0157 160.543 46.4887 160.268 46.8129L96.6744 121.906C96.5074 122.1 96.2545 122.216 95.9838 122.213C95.9204 122.212 95.8578 122.207 95.7967 122.195ZM76.7947 98.0734L95.944 120.01L155.324 49.8911L76.7947 98.0734Z" fill="#5D13FD"/>
<path d="M104.992 362.142C104.76 362.095 104.554 361.964 104.423 361.773L52.9708 289.316C52.7199 288.968 52.7715 288.51 53.0843 288.226C53.4012 287.942 53.8791 287.928 54.2407 288.171L126.636 339.483C126.844 339.63 126.976 339.853 127.002 340.099C127.029 340.34 126.942 340.579 126.77 340.756L105.826 361.901C105.64 362.087 105.375 362.181 105.1 362.156C105.062 362.153 105.029 362.15 104.992 362.142ZM57.3762 292.503L105.265 359.944L124.759 340.263L57.3762 292.503Z" fill="#5D13FD"/>
<path d="M208.145 401.136C208.096 401.126 208.048 401.112 208 401.094L104.849 362.101C104.569 361.995 104.358 361.763 104.288 361.485C104.221 361.211 104.297 360.922 104.501 360.716L125.444 339.57C125.755 339.254 126.272 339.216 126.648 339.493L208.856 399.632C209.214 399.893 209.322 400.36 209.106 400.728C208.912 401.053 208.523 401.213 208.145 401.136ZM106.727 360.988L202.724 397.276L126.219 341.311L106.727 360.988Z" fill="#5D13FD"/>
<path d="M408.533 170.315C408.403 170.288 408.278 170.234 408.164 170.151L325.953 110.023C325.559 109.734 325.477 109.201 325.769 108.832L352.134 75.4874C352.316 75.2605 352.605 75.1354 352.91 75.158C353.212 75.1959 353.49 75.3491 353.638 75.5998L409.484 169.072C409.695 169.428 409.621 169.869 409.3 170.132C409.086 170.308 408.802 170.37 408.533 170.315ZM327.745 109.206L405.756 166.26L352.764 77.5631L327.745 109.206Z" fill="#5D13FD"/>
<path d="M326.322 110.187C326.138 110.149 325.97 110.059 325.84 109.928L263.759 46.7314C263.475 46.4409 263.433 46.0076 263.652 45.6841C263.871 45.3606 264.322 45.249 264.695 45.3536L353.141 75.2053C353.415 75.2976 353.627 75.5052 353.717 75.7681C353.803 76.0301 353.754 76.3123 353.582 76.5293L327.217 109.874C327.057 110.074 326.816 110.196 326.551 110.206C326.474 110.21 326.395 110.202 326.322 110.187ZM267.551 48.1143L326.405 108.025L351.4 76.414L267.551 48.1143Z" fill="#5D13FD"/>
<path d="M83.0201 234.451C82.8532 234.417 82.6918 234.336 82.5634 234.217L35.0825 189.52C34.7448 189.203 34.7172 188.697 35.0191 188.362L95.2772 120.802C95.5306 120.518 95.9675 120.435 96.3187 120.584C96.6855 120.739 96.9048 121.096 96.8616 121.472L84.0845 233.728C84.0483 234.049 83.8183 234.323 83.4963 234.425C83.3413 234.477 83.1747 234.483 83.0201 234.451ZM36.9351 188.883L82.4928 231.772L94.7538 124.055L36.9351 188.883Z" fill="#5D13FD"/>
<path d="M53.5399 289.685C53.1737 289.609 52.8882 289.327 52.8243 288.977L34.8226 189.047C34.7577 188.681 34.9457 188.323 35.2893 188.157C35.6378 187.988 36.0511 188.061 36.3373 188.32L83.8182 233.017C84.0987 233.283 84.1687 233.686 83.9952 234.014L54.5159 289.248C54.3424 289.577 53.9622 289.755 53.5806 289.693L53.5399 289.685ZM37.062 191.381L54.1331 286.154L82.0899 233.772L37.062 191.381Z" fill="#5D13FD"/>
<path d="M125.936 340.997C125.81 340.971 125.689 340.918 125.577 340.843L53.1815 289.531C52.8263 289.278 52.708 288.821 52.9065 288.453L82.3858 233.219C82.5448 232.919 82.8778 232.744 83.234 232.765C83.5805 232.812 83.9037 233.014 84.03 233.328L126.947 339.875C127.09 340.228 126.97 340.628 126.657 340.852C126.445 340.997 126.184 341.048 125.936 340.997ZM54.8591 288.609L124.174 337.74L83.0851 235.722L54.8591 288.609Z" fill="#5D13FD"/>
<path d="M208.145 401.136C207.958 401.097 207.778 401.001 207.646 400.857C207.41 400.605 207.352 400.248 207.49 399.944L228.409 354.824C228.575 354.474 228.968 354.274 229.37 354.341L319.517 369.062C319.87 369.099 320.246 369.46 320.278 369.859C320.312 370.255 320.051 370.614 319.651 370.724L208.584 401.122C208.437 401.16 208.287 401.165 208.145 401.136ZM229.786 356.136L209.925 398.97L315.367 370.109L229.786 356.136Z" fill="#5D13FD"/>
<path d="M208.145 401.136C208.015 401.109 207.886 401.055 207.776 400.972L125.567 340.833C125.243 340.594 125.12 340.181 125.274 339.824C125.428 339.467 125.817 339.263 126.226 339.318L229.353 354.337C229.634 354.395 229.883 354.546 230.018 354.778C230.156 355.015 230.174 355.299 230.061 355.54L209.142 400.66C209.029 400.897 208.812 401.068 208.545 401.13C208.415 401.163 208.275 401.163 208.145 401.136ZM129.395 341.503L207.946 398.964L227.935 355.852L129.395 341.503Z" fill="#5D13FD"/>
<path d="M206.862 91.8045C206.532 91.7368 206.262 91.5012 206.169 91.1898C206.071 90.8651 206.18 90.5191 206.452 90.3067L263.832 45.4932C264.2 45.2083 264.742 45.2515 265.064 45.582L327.146 108.779C327.408 109.049 327.468 109.442 327.292 109.762C327.12 110.079 326.749 110.255 326.367 110.197L206.907 91.8136L206.862 91.8045ZM264.346 47.3249L209.149 90.4356L324.066 108.119L264.346 47.3249Z" fill="#5D13FD"/>
<path d="M95.7961 122.195C95.5682 122.148 95.3609 122.021 95.2264 121.829C95.0025 121.515 95.0187 121.106 95.2607 120.815L158.855 45.7218C159.011 45.5377 159.246 45.4257 159.503 45.4144C159.761 45.3991 160.008 45.4979 160.189 45.6673L207.66 90.3701C207.888 90.585 207.981 90.8964 207.908 91.186C207.831 91.4786 207.602 91.7078 207.301 91.7901L96.2358 122.181C96.088 122.218 95.9385 122.224 95.7961 122.195ZM159.652 47.5396L98.4707 119.784L205.321 90.5468L159.652 47.5396Z" fill="#5D13FD"/>
<path d="M206.862 91.804C206.695 91.7698 206.538 91.6894 206.405 91.5701L158.934 46.8673C158.675 46.6219 158.593 46.2566 158.726 45.9395C158.855 45.6215 159.177 45.4153 159.542 45.4141L264.392 45.3033C264.773 45.3093 265.117 45.5322 265.251 45.8721C265.389 46.2127 265.285 46.5921 264.993 46.8203L207.613 91.6339C207.397 91.8016 207.122 91.8575 206.862 91.804ZM161.728 47.1165L207.074 89.8209L261.887 47.0119L161.728 47.1165Z" fill="#5D13FD"/>
<path d="M395.755 282.576C395.474 282.518 395.232 282.336 395.107 282.078L358.626 205.524C358.453 205.165 358.561 204.742 358.89 204.505L408.149 168.799C408.432 168.596 408.819 168.572 409.139 168.746C409.456 168.919 409.638 169.252 409.597 169.592L396.819 281.853C396.775 282.232 396.472 282.534 396.071 282.588C395.962 282.602 395.857 282.596 395.755 282.576ZM360.558 205.469L395.381 278.55L407.581 171.381L360.558 205.469Z" fill="#5D13FD"/>
<path d="M359.275 206.021C359.246 206.015 359.214 206.009 359.186 205.999C358.907 205.914 358.683 205.703 358.593 205.437L325.641 109.603C325.515 109.244 325.649 108.859 325.968 108.649C326.286 108.441 326.713 108.449 327.034 108.683L409.245 168.81C409.466 168.972 409.601 169.224 409.602 169.488C409.607 169.754 409.479 170.004 409.26 170.163L360.001 205.87C359.796 206.02 359.531 206.074 359.275 206.021ZM328.24 111.694L359.897 203.774L407.228 169.466L328.24 111.694Z" fill="#5D13FD"/>
<path d="M319.211 370.738C319.191 370.734 319.17 370.729 319.151 370.721C318.809 370.631 318.552 370.354 318.497 370.022L304.916 291.1C304.874 290.871 304.934 290.639 305.077 290.457C305.225 290.275 305.444 290.159 305.683 290.132L395.808 280.891C396.179 280.859 396.534 281.032 396.712 281.341C396.89 281.65 396.856 282.024 396.627 282.293L320.083 370.456C319.873 370.697 319.537 370.805 319.211 370.738ZM306.838 291.735L319.946 367.901L393.814 282.817L306.838 291.735Z" fill="#5D13FD"/>
<path d="M229.064 356.016C228.738 355.949 228.472 355.718 228.374 355.41C228.274 355.093 228.373 354.753 228.63 354.537L305.196 290.336C305.441 290.134 305.779 290.076 306.097 290.181C306.409 290.293 306.636 290.552 306.687 290.863L320.268 369.785C320.319 370.056 320.225 370.325 320.025 370.516C319.82 370.706 319.536 370.792 319.248 370.745L229.101 356.023L229.064 356.016ZM305.183 292.653L231.244 354.649L318.294 368.863L305.183 292.653Z" fill="#5D13FD"/>
<path d="M305.63 291.816C305.398 291.768 305.189 291.633 305.051 291.436C304.861 291.161 304.853 290.811 305.024 290.534L358.668 204.74C358.838 204.47 359.154 204.315 359.493 204.336C359.812 204.374 360.126 204.558 360.265 204.851L396.746 281.405C396.865 281.653 396.853 281.939 396.712 282.171C396.575 282.407 396.327 282.56 396.045 282.59L305.92 291.831C305.821 291.839 305.724 291.835 305.63 291.816ZM359.347 207.034L307.503 289.945L394.604 281.017L359.347 207.034Z" fill="#5D13FD"/>
<path d="M83.0197 234.451C82.9383 234.434 82.8552 234.405 82.7785 234.365C82.4483 234.197 82.2559 233.854 82.2976 233.506L95.0747 121.249C95.1101 120.932 95.3304 120.665 95.6451 120.557C95.9606 120.446 96.3154 120.515 96.5705 120.739L156.81 173.297C157.005 173.465 157.114 173.7 157.111 173.94C157.112 174.184 157.001 174.414 156.808 174.57L83.7867 234.268C83.5723 234.444 83.2882 234.506 83.0197 234.451ZM96.6748 123.123L84.3329 231.544L154.862 173.886L96.6748 123.123Z" fill="#5D13FD"/>
<path d="M156.041 174.753C155.882 174.721 155.735 174.651 155.61 174.541L95.3696 121.983C95.1285 121.773 95.0192 121.458 95.0889 121.16C95.1585 120.862 95.3936 120.626 95.6995 120.54L206.765 90.15C207.123 90.0593 207.501 90.1771 207.733 90.4529C207.965 90.7287 207.997 91.1117 207.812 91.4103L156.991 174.36C156.857 174.58 156.623 174.729 156.356 174.766C156.248 174.78 156.143 174.774 156.041 174.753ZM97.7466 121.766L155.983 172.575L205.113 92.3902L97.7466 121.766Z" fill="#5D13FD"/>
<path d="M229.064 356.016C228.791 355.96 228.555 355.787 228.431 355.545L185.553 272.965C185.404 272.678 185.431 272.339 185.627 272.087C185.823 271.835 186.15 271.71 186.484 271.758L305.928 290.138C306.183 290.175 306.559 290.432 306.659 290.749C306.764 291.067 306.663 291.41 306.407 291.626L229.841 355.827C229.631 356 229.341 356.073 229.064 356.016ZM187.925 273.704L229.51 353.8L303.772 291.53L187.925 273.704Z" fill="#5D13FD"/>
<path d="M125.936 340.997C125.635 340.935 125.384 340.731 125.271 340.456C125.149 340.163 125.207 339.838 125.416 339.605L185.666 272.043C185.86 271.823 186.157 271.716 186.462 271.758C186.77 271.745 187.028 271.978 187.161 272.238L230.039 354.818C230.188 355.105 230.161 355.44 229.965 355.692C229.774 355.945 229.446 356.074 229.116 356.027L125.989 341.008L125.936 340.997ZM186.167 274.148L127.84 339.553L227.677 354.093L186.167 274.148Z" fill="#5D13FD"/>
<path d="M125.936 340.997C125.63 340.934 125.38 340.731 125.267 340.451L82.3508 233.905C82.2245 233.591 82.3019 233.234 82.5533 233.002C82.7998 232.772 83.1789 232.701 83.5056 232.825L186.672 271.809C186.943 271.913 187.153 272.132 187.225 272.399C187.301 272.671 187.234 272.954 187.048 273.16L126.798 340.721C126.594 340.952 126.275 341.059 125.96 341.002L125.936 340.997ZM84.7482 235.118L126.396 338.504L184.857 272.947L84.7482 235.118Z" fill="#5D13FD"/>
<path d="M186.186 273.435C186.137 273.425 186.089 273.412 186.042 273.394L82.8753 234.409C82.5803 234.297 82.3642 234.048 82.3062 233.752C82.2483 233.455 82.3602 233.158 82.5948 232.966L155.616 173.268C155.846 173.079 156.18 173 156.46 173.105C156.755 173.194 156.989 173.418 157.075 173.7L187.221 272.382C187.314 272.694 187.22 273.027 186.968 273.24C186.757 273.421 186.463 273.492 186.186 273.435ZM84.9073 233.352L184.991 271.176L155.747 175.438L84.9073 233.352Z" fill="#5D13FD"/>
<path d="M186.186 273.436C185.858 273.364 185.588 273.129 185.494 272.821L155.349 174.139C155.264 173.869 155.328 173.578 155.516 173.364C155.704 173.151 155.99 173.041 156.285 173.07L262.974 183.589C263.3 183.632 263.599 183.829 263.73 184.121C263.86 184.416 263.809 184.749 263.602 184.991L187.058 273.154C186.848 273.395 186.512 273.503 186.186 273.436ZM157.441 174.897L186.739 270.806L261.133 185.121L157.441 174.897Z" fill="#5D13FD"/>
<path d="M186.186 273.436C185.885 273.374 185.634 273.17 185.52 272.899C185.401 272.61 185.455 272.285 185.656 272.049L262.2 183.886C262.404 183.656 262.724 183.545 263.039 183.598C263.377 183.708 263.625 183.863 263.74 184.151L306.64 290.693C306.756 290.977 306.704 291.295 306.503 291.526C306.307 291.758 305.991 291.874 305.674 291.825L186.23 273.445L186.186 273.436ZM262.62 186.115L188.054 272.001L304.414 289.908L262.62 186.115Z" fill="#5D13FD"/>
<path d="M305.63 291.816C305.329 291.754 305.074 291.549 304.961 291.27L262.061 184.727C261.943 184.435 262.002 184.106 262.215 183.874C262.429 183.637 262.789 183.639 263.08 183.607L359.624 204.355C359.908 204.417 360.146 204.602 360.268 204.856C360.385 205.112 360.368 205.401 360.223 205.635L306.578 291.43C306.402 291.71 306.074 291.863 305.728 291.832C305.696 291.825 305.662 291.822 305.63 291.816ZM264.33 185.617L305.969 289.026L358.035 205.755L264.33 185.617Z" fill="#5D13FD"/>
<path d="M359.274 206.022L359.266 206.02L262.721 185.271C262.417 185.205 262.164 184.993 262.056 184.714C261.948 184.432 262.003 184.123 262.194 183.894L325.787 108.808C325.993 108.566 326.326 108.454 326.648 108.516L326.664 108.519C326.986 108.585 327.245 108.811 327.346 109.104L360.298 204.938C360.399 205.231 360.33 205.545 360.119 205.77C359.904 205.991 359.587 206.086 359.274 206.022ZM264.509 183.916L358.11 204.028L326.16 111.123L264.509 183.916Z" fill="#5D13FD"/>
<path d="M262.729 185.273C262.473 185.22 262.25 185.066 262.121 184.848L206.253 91.379C206.083 91.0918 206.096 90.7419 206.286 90.4766C206.48 90.2121 206.817 90.0771 207.159 90.1271L326.619 108.51C326.856 108.579 327.207 108.767 327.327 109.052C327.446 109.341 327.397 109.659 327.199 109.899L263.607 184.985C263.422 185.203 263.132 185.316 262.837 185.287C262.799 185.283 262.762 185.28 262.729 185.273ZM208.728 92.0913L263.017 182.921L324.817 109.959L208.728 92.0913Z" fill="#5D13FD"/>
<path d="M156.041 174.754C155.776 174.699 155.543 174.532 155.417 174.301C155.271 174.039 155.28 173.729 155.433 173.48L206.254 90.5302C206.414 90.2667 206.709 90.111 207.034 90.1177C207.34 90.1163 207.651 90.2924 207.812 90.5617L263.68 184.03C263.848 184.309 263.838 184.648 263.661 184.912C263.483 185.176 263.161 185.322 262.828 185.289L156.139 174.77C156.106 174.767 156.073 174.76 156.041 174.754ZM207.033 92.6846L157.697 173.211L261.269 183.423L207.033 92.6846Z" fill="#5D13FD"/>
</svg>
